<svg width="194" height="43" viewBox="0 0 194 43" fill="none" xmlns="http://www.w3.org/2000/svg">
<path d="M14.742 34.328C14.742 34.888 13.356 35.168 10.584 35.168C7.81201 35.168 6.42601 34.888 6.42601 34.328V13.244H1.38601C0.910014 13.244 0.574014 12.6 0.378014 11.312C0.294014 10.696 0.252014 10.066 0.252014 9.42199C0.252014 8.77799 0.294014 8.14799 0.378014 7.53199C0.574014 6.24399 0.910014 5.59999 1.38601 5.59999H19.656C20.132 5.59999 20.468 6.24399 20.664 7.53199C20.748 8.14799 20.79 8.77799 20.79 9.42199C20.79 10.066 20.748 10.696 20.664 11.312C20.468 12.6 20.132 13.244 19.656 13.244H14.742V34.328Z" fill="#070707"/>
<path d="M23.3015 32.522C21.5655 30.59 20.6975 27.916 20.6975 24.5C20.6975 21.084 21.5655 18.41 23.3015 16.478C25.0655 14.546 27.4315 13.58 30.3995 13.58C33.3675 13.58 35.7195 14.546 37.4555 16.478C39.1915 18.41 40.0595 21.084 40.0595 24.5C40.0595 27.916 39.1915 30.59 37.4555 32.522C35.7195 34.454 33.3675 35.42 30.3995 35.42C27.4315 35.42 25.0655 34.454 23.3015 32.522ZM30.3995 20.594C28.8315 20.594 28.0475 21.882 28.0475 24.458C28.0475 27.034 28.8315 28.322 30.3995 28.322C31.9955 28.322 32.7935 27.034 32.7935 24.458C32.7935 21.882 31.9955 20.594 30.3995 20.594Z" fill="#070707"/>
<path d="M41.5587 14.21C41.5587 13.902 42.8327 13.748 45.3807 13.748C47.9567 13.748 49.2867 13.888 49.3707 14.168L52.3947 24.08L55.2927 14.084C55.4047 13.86 56.2727 13.748 57.8967 13.748C61.6207 13.748 63.3987 13.93 63.2307 14.294L53.3607 42.392C53.3327 42.56 52.5627 42.644 51.0507 42.644C49.5667 42.644 48.1807 42.588 46.8927 42.476C45.6047 42.392 44.9887 42.28 45.0447 42.14L48.6987 33.32L41.5587 14.21Z" fill="#070707"/>
<path d="M65.68 27.522V1.39798C65.68 0.809986 67.094 0.515986 69.922 0.515986C72.778 0.515986 74.206 0.809986 74.206 1.39798V21.978H80.674C81.178 21.978 81.528 22.636 81.724 23.952C81.808 24.596 81.85 25.254 81.85 25.926C81.85 26.598 81.808 27.284 81.724 27.984C81.5 29.328 81.136 30 80.632 30H67.696C67.08 30 66.59 29.748 66.226 29.244C65.862 28.74 65.68 28.166 65.68 27.522Z" fill="#FF7373"/>
<path d="M86.788 14.754C86.004 13.354 85.612 12.22 85.612 11.352C85.612 10.456 85.85 9.88199 86.326 9.62999C87.922 8.92999 90.106 8.57998 92.878 8.57998C95.678 8.57998 97.652 9.23799 98.8 10.554C99.948 11.842 100.522 13.76 100.522 16.308V22.944H101.95C102.426 22.944 102.79 23.224 103.042 23.784C103.322 24.344 103.462 25.114 103.462 26.094C103.462 27.074 103.21 28.04 102.706 28.992C102.23 29.944 101.572 30.42 100.732 30.42C99.22 30.42 98.002 30.014 97.078 29.202C96.658 28.866 96.336 28.46 96.112 27.984C94.824 29.608 92.822 30.42 90.106 30.42C88.062 30.42 86.34 29.692 84.94 28.236C83.54 26.78 82.84 25.058 82.84 23.07C82.84 18.506 85.57 16.224 91.03 16.224H93.34V15.804C93.34 15.076 93.214 14.614 92.962 14.418C92.738 14.194 92.192 14.082 91.324 14.082C90.26 14.082 88.748 14.306 86.788 14.754ZM90.148 22.482C90.148 23.098 90.316 23.574 90.652 23.91C90.988 24.218 91.408 24.372 91.912 24.372C92.444 24.372 92.92 24.162 93.34 23.742V20.508H92.164C90.82 20.508 90.148 21.166 90.148 22.482Z" fill="#FF7373"/>
<path d="M114.617 29.748C114.617 29.944 113.609 30.042 111.593 30.042C108.793 29.958 107.393 29.804 107.393 29.58V15.972H106.301C105.573 15.972 105.097 15.356 104.873 14.124C104.817 13.76 104.789 13.396 104.789 13.032C104.789 12.164 104.957 11.296 105.293 10.428C105.797 9.19599 106.581 8.57998 107.645 8.57998C108.709 8.57998 109.661 8.83199 110.501 9.33599C111.341 9.83999 111.901 10.344 112.181 10.848C113.945 9.33599 116.045 8.57998 118.481 8.57998C120.917 8.57998 122.681 9.23799 123.773 10.554C124.865 11.87 125.411 14.026 125.411 17.022V29.622C125.411 29.958 124.207 30.126 121.799 30.126C119.419 30.126 118.229 29.958 118.229 29.622V17.484C118.229 16.084 117.739 15.384 116.759 15.384C116.479 15.384 116.087 15.51 115.583 15.762C115.079 15.986 114.757 16.154 114.617 16.266V29.748Z" fill="#FF7373"/>
<path d="M139.598 0.851987C139.598 0.431985 140.704 0.221985 142.916 0.221985C143.672 0.221985 144.54 0.277985 145.52 0.389985C146.528 0.473986 147.032 0.599986 147.032 0.767985V22.902H148.502C149.202 22.902 149.664 23.532 149.888 24.792C149.944 25.156 149.972 25.66 149.972 26.304C149.972 26.92 149.776 27.676 149.384 28.572C148.824 29.804 147.928 30.42 146.696 30.42C145.772 30.42 144.946 30.238 144.218 29.874C143.518 29.51 143.042 29.132 142.79 28.74L142.412 28.194C140.872 29.678 138.94 30.42 136.616 30.42C134.292 30.42 132.304 29.454 130.652 27.522C129 25.59 128.174 22.902 128.174 19.458C128.174 15.986 129.042 13.312 130.778 11.436C132.514 9.53199 134.684 8.57998 137.288 8.57998C138.044 8.57998 138.814 8.66399 139.598 8.83199V0.851987ZM138.212 15.3C136.644 15.3 135.86 16.714 135.86 19.542C135.86 20.97 136.084 22.006 136.532 22.65C136.98 23.266 137.47 23.574 138.002 23.574C138.562 23.574 139.094 23.336 139.598 22.86V15.72C139.122 15.44 138.66 15.3 138.212 15.3Z" fill="#FF7373"/>
<path d="M160.406 29.748C160.406 29.972 159.118 30.084 156.542 30.084C153.994 30.084 152.72 29.986 152.72 29.79V9.16799C152.72 8.97199 153.994 8.87399 156.542 8.87399C159.118 8.87399 160.406 8.95799 160.406 9.12599V29.748ZM160.406 6.64798C160.406 6.84399 159.118 6.94199 156.542 6.94199C153.994 6.94199 152.72 6.85799 152.72 6.68999V0.641984C152.72 0.361985 153.994 0.221985 156.542 0.221985C159.118 0.221985 160.406 0.305985 160.406 0.473987V6.64798Z" fill="#FF7373"/>
<path d="M166.85 14.754C166.066 13.354 165.674 12.22 165.674 11.352C165.674 10.456 165.912 9.88199 166.388 9.62999C167.984 8.92999 170.168 8.57998 172.94 8.57998C175.74 8.57998 177.714 9.23799 178.862 10.554C180.01 11.842 180.584 13.76 180.584 16.308V22.944H182.012C182.488 22.944 182.852 23.224 183.104 23.784C183.384 24.344 183.524 25.114 183.524 26.094C183.524 27.074 183.272 28.04 182.768 28.992C182.292 29.944 181.634 30.42 180.794 30.42C179.282 30.42 178.064 30.014 177.14 29.202C176.72 28.866 176.398 28.46 176.174 27.984C174.886 29.608 172.884 30.42 170.168 30.42C168.124 30.42 166.402 29.692 165.002 28.236C163.602 26.78 162.902 25.058 162.902 23.07C162.902 18.506 165.632 16.224 171.092 16.224H173.402V15.804C173.402 15.076 173.276 14.614 173.024 14.418C172.8 14.194 172.254 14.082 171.386 14.082C170.322 14.082 168.81 14.306 166.85 14.754ZM170.21 22.482C170.21 23.098 170.378 23.574 170.714 23.91C171.05 24.218 171.47 24.372 171.974 24.372C172.506 24.372 172.982 24.162 173.402 23.742V20.508H172.226C170.882 20.508 170.21 21.166 170.21 22.482Z" fill="#FF7373"/>
<path d="M70.68 32.522V6.39798C70.68 5.80999 72.094 5.51599 74.922 5.51599C77.778 5.51599 79.206 5.80999 79.206 6.39798V26.978H85.674C86.178 26.978 86.528 27.636 86.724 28.952C86.808 29.596 86.85 30.254 86.85 30.926C86.85 31.598 86.808 32.284 86.724 32.984C86.5 34.328 86.136 35 85.632 35H72.696C72.08 35 71.59 34.748 71.226 34.244C70.862 33.74 70.68 33.166 70.68 32.522Z" fill="#FFE072"/>
<path d="M91.788 19.754C91.004 18.354 90.612 17.22 90.612 16.352C90.612 15.456 90.85 14.882 91.326 14.63C92.922 13.93 95.106 13.58 97.878 13.58C100.678 13.58 102.652 14.238 103.8 15.554C104.948 16.842 105.522 18.76 105.522 21.308V27.944H106.95C107.426 27.944 107.79 28.224 108.042 28.784C108.322 29.344 108.462 30.114 108.462 31.094C108.462 32.074 108.21 33.04 107.706 33.992C107.23 34.944 106.572 35.42 105.732 35.42C104.22 35.42 103.002 35.014 102.078 34.202C101.658 33.866 101.336 33.46 101.112 32.984C99.824 34.608 97.822 35.42 95.106 35.42C93.062 35.42 91.34 34.692 89.94 33.236C88.54 31.78 87.84 30.058 87.84 28.07C87.84 23.506 90.57 21.224 96.03 21.224H98.34V20.804C98.34 20.076 98.214 19.614 97.962 19.418C97.738 19.194 97.192 19.082 96.324 19.082C95.26 19.082 93.748 19.306 91.788 19.754ZM95.148 27.482C95.148 28.098 95.316 28.574 95.652 28.91C95.988 29.218 96.408 29.372 96.912 29.372C97.444 29.372 97.92 29.162 98.34 28.742V25.508H97.164C95.82 25.508 95.148 26.166 95.148 27.482Z" fill="#FFE072"/>
<path d="M119.617 34.748C119.617 34.944 118.609 35.042 116.593 35.042C113.793 34.958 112.393 34.804 112.393 34.58V20.972H111.301C110.573 20.972 110.097 20.356 109.873 19.124C109.817 18.76 109.789 18.396 109.789 18.032C109.789 17.164 109.957 16.296 110.293 15.428C110.797 14.196 111.581 13.58 112.645 13.58C113.709 13.58 114.661 13.832 115.501 14.336C116.341 14.84 116.901 15.344 117.181 15.848C118.945 14.336 121.045 13.58 123.481 13.58C125.917 13.58 127.681 14.238 128.773 15.554C129.865 16.87 130.411 19.026 130.411 22.022V34.622C130.411 34.958 129.207 35.126 126.799 35.126C124.419 35.126 123.229 34.958 123.229 34.622V22.484C123.229 21.084 122.739 20.384 121.759 20.384C121.479 20.384 121.087 20.51 120.583 20.762C120.079 20.986 119.757 21.154 119.617 21.266V34.748Z" fill="#FFE072"/>
<path d="M144.598 5.85199C144.598 5.43199 145.704 5.22198 147.916 5.22198C148.672 5.22198 149.54 5.27798 150.52 5.38999C151.528 5.47399 152.032 5.59999 152.032 5.76799V27.902H153.502C154.202 27.902 154.664 28.532 154.888 29.792C154.944 30.156 154.972 30.66 154.972 31.304C154.972 31.92 154.776 32.676 154.384 33.572C153.824 34.804 152.928 35.42 151.696 35.42C150.772 35.42 149.946 35.238 149.218 34.874C148.518 34.51 148.042 34.132 147.79 33.74L147.412 33.194C145.872 34.678 143.94 35.42 141.616 35.42C139.292 35.42 137.304 34.454 135.652 32.522C134 30.59 133.174 27.902 133.174 24.458C133.174 20.986 134.042 18.312 135.778 16.436C137.514 14.532 139.684 13.58 142.288 13.58C143.044 13.58 143.814 13.664 144.598 13.832V5.85199ZM143.212 20.3C141.644 20.3 140.86 21.714 140.86 24.542C140.86 25.97 141.084 27.006 141.532 27.65C141.98 28.266 142.47 28.574 143.002 28.574C143.562 28.574 144.094 28.336 144.598 27.86V20.72C144.122 20.44 143.66 20.3 143.212 20.3Z" fill="#FFE072"/>
<path d="M165.406 34.748C165.406 34.972 164.118 35.084 161.542 35.084C158.994 35.084 157.72 34.986 157.72 34.79V14.168C157.72 13.972 158.994 13.874 161.542 13.874C164.118 13.874 165.406 13.958 165.406 14.126V34.748ZM165.406 11.648C165.406 11.844 164.118 11.942 161.542 11.942C158.994 11.942 157.72 11.858 157.72 11.69V5.64198C157.72 5.36198 158.994 5.22198 161.542 5.22198C164.118 5.22198 165.406 5.30599 165.406 5.47399V11.648Z" fill="#FFE072"/>
<path d="M171.85 19.754C171.066 18.354 170.674 17.22 170.674 16.352C170.674 15.456 170.912 14.882 171.388 14.63C172.984 13.93 175.168 13.58 177.94 13.58C180.74 13.58 182.714 14.238 183.862 15.554C185.01 16.842 185.584 18.76 185.584 21.308V27.944H187.012C187.488 27.944 187.852 28.224 188.104 28.784C188.384 29.344 188.524 30.114 188.524 31.094C188.524 32.074 188.272 33.04 187.768 33.992C187.292 34.944 186.634 35.42 185.794 35.42C184.282 35.42 183.064 35.014 182.14 34.202C181.72 33.866 181.398 33.46 181.174 32.984C179.886 34.608 177.884 35.42 175.168 35.42C173.124 35.42 171.402 34.692 170.002 33.236C168.602 31.78 167.902 30.058 167.902 28.07C167.902 23.506 170.632 21.224 176.092 21.224H178.402V20.804C178.402 20.076 178.276 19.614 178.024 19.418C177.8 19.194 177.254 19.082 176.386 19.082C175.322 19.082 173.81 19.306 171.85 19.754ZM175.21 27.482C175.21 28.098 175.378 28.574 175.714 28.91C176.05 29.218 176.47 29.372 176.974 29.372C177.506 29.372 177.982 29.162 178.402 28.742V25.508H177.226C175.882 25.508 175.21 26.166 175.21 27.482Z" fill="#FFE072"/>
<path d="M75.68 37.522V11.398C75.68 10.81 77.094 10.516 79.922 10.516C82.778 10.516 84.206 10.81 84.206 11.398V31.978H90.674C91.178 31.978 91.528 32.636 91.724 33.952C91.808 34.596 91.85 35.254 91.85 35.926C91.85 36.598 91.808 37.284 91.724 37.984C91.5 39.328 91.136 40 90.632 40H77.696C77.08 40 76.59 39.748 76.226 39.244C75.862 38.74 75.68 38.166 75.68 37.522Z" fill="#538EFF"/>
<path d="M96.788 24.754C96.004 23.354 95.612 22.22 95.612 21.352C95.612 20.456 95.85 19.882 96.326 19.63C97.922 18.93 100.106 18.58 102.878 18.58C105.678 18.58 107.652 19.238 108.8 20.554C109.948 21.842 110.522 23.76 110.522 26.308V32.944H111.95C112.426 32.944 112.79 33.224 113.042 33.784C113.322 34.344 113.462 35.114 113.462 36.094C113.462 37.074 113.21 38.04 112.706 38.992C112.23 39.944 111.572 40.42 110.732 40.42C109.22 40.42 108.002 40.014 107.078 39.202C106.658 38.866 106.336 38.46 106.112 37.984C104.824 39.608 102.822 40.42 100.106 40.42C98.062 40.42 96.34 39.692 94.94 38.236C93.54 36.78 92.84 35.058 92.84 33.07C92.84 28.506 95.57 26.224 101.03 26.224H103.34V25.804C103.34 25.076 103.214 24.614 102.962 24.418C102.738 24.194 102.192 24.082 101.324 24.082C100.26 24.082 98.748 24.306 96.788 24.754ZM100.148 32.482C100.148 33.098 100.316 33.574 100.652 33.91C100.988 34.218 101.408 34.372 101.912 34.372C102.444 34.372 102.92 34.162 103.34 33.742V30.508H102.164C100.82 30.508 100.148 31.166 100.148 32.482Z" fill="#538EFF"/>
<path d="M124.617 39.748C124.617 39.944 123.609 40.042 121.593 40.042C118.793 39.958 117.393 39.804 117.393 39.58V25.972H116.301C115.573 25.972 115.097 25.356 114.873 24.124C114.817 23.76 114.789 23.396 114.789 23.032C114.789 22.164 114.957 21.296 115.293 20.428C115.797 19.196 116.581 18.58 117.645 18.58C118.709 18.58 119.661 18.832 120.501 19.336C121.341 19.84 121.901 20.344 122.181 20.848C123.945 19.336 126.045 18.58 128.481 18.58C130.917 18.58 132.681 19.238 133.773 20.554C134.865 21.87 135.411 24.026 135.411 27.022V39.622C135.411 39.958 134.207 40.126 131.799 40.126C129.419 40.126 128.229 39.958 128.229 39.622V27.484C128.229 26.084 127.739 25.384 126.759 25.384C126.479 25.384 126.087 25.51 125.583 25.762C125.079 25.986 124.757 26.154 124.617 26.266V39.748Z" fill="#538EFF"/>
<path d="M149.598 10.852C149.598 10.432 150.704 10.222 152.916 10.222C153.672 10.222 154.54 10.278 155.52 10.39C156.528 10.474 157.032 10.6 157.032 10.768V32.902H158.502C159.202 32.902 159.664 33.532 159.888 34.792C159.944 35.156 159.972 35.66 159.972 36.304C159.972 36.92 159.776 37.676 159.384 38.572C158.824 39.804 157.928 40.42 156.696 40.42C155.772 40.42 154.946 40.238 154.218 39.874C153.518 39.51 153.042 39.132 152.79 38.74L152.412 38.194C150.872 39.678 148.94 40.42 146.616 40.42C144.292 40.42 142.304 39.454 140.652 37.522C139 35.59 138.174 32.902 138.174 29.458C138.174 25.986 139.042 23.312 140.778 21.436C142.514 19.532 144.684 18.58 147.288 18.58C148.044 18.58 148.814 18.664 149.598 18.832V10.852ZM148.212 25.3C146.644 25.3 145.86 26.714 145.86 29.542C145.86 30.97 146.084 32.006 146.532 32.65C146.98 33.266 147.47 33.574 148.002 33.574C148.562 33.574 149.094 33.336 149.598 32.86V25.72C149.122 25.44 148.66 25.3 148.212 25.3Z" fill="#538EFF"/>
<path d="M170.406 39.748C170.406 39.972 169.118 40.084 166.542 40.084C163.994 40.084 162.72 39.986 162.72 39.79V19.168C162.72 18.972 163.994 18.874 166.542 18.874C169.118 18.874 170.406 18.958 170.406 19.126V39.748ZM170.406 16.648C170.406 16.844 169.118 16.942 166.542 16.942C163.994 16.942 162.72 16.858 162.72 16.69V10.642C162.72 10.362 163.994 10.222 166.542 10.222C169.118 10.222 170.406 10.306 170.406 10.474V16.648Z" fill="#538EFF"/>
<path d="M176.85 24.754C176.066 23.354 175.674 22.22 175.674 21.352C175.674 20.456 175.912 19.882 176.388 19.63C177.984 18.93 180.168 18.58 182.94 18.58C185.74 18.58 187.714 19.238 188.862 20.554C190.01 21.842 190.584 23.76 190.584 26.308V32.944H192.012C192.488 32.944 192.852 33.224 193.104 33.784C193.384 34.344 193.524 35.114 193.524 36.094C193.524 37.074 193.272 38.04 192.768 38.992C192.292 39.944 191.634 40.42 190.794 40.42C189.282 40.42 188.064 40.014 187.14 39.202C186.72 38.866 186.398 38.46 186.174 37.984C184.886 39.608 182.884 40.42 180.168 40.42C178.124 40.42 176.402 39.692 175.002 38.236C173.602 36.78 172.902 35.058 172.902 33.07C172.902 28.506 175.632 26.224 181.092 26.224H183.402V25.804C183.402 25.076 183.276 24.614 183.024 24.418C182.8 24.194 182.254 24.082 181.386 24.082C180.322 24.082 178.81 24.306 176.85 24.754ZM180.21 32.482C180.21 33.098 180.378 33.574 180.714 33.91C181.05 34.218 181.47 34.372 181.974 34.372C182.506 34.372 182.982 34.162 183.402 33.742V30.508H182.226C180.882 30.508 180.21 31.166 180.21 32.482Z" fill="#538EFF"/>
</svg>
